<?xml version="1.0" standalone="no"?><!DOCTYPE svg PUBLIC "-//W3C//DTD SVG 1.1//EN" "http://www.w3.org/Graphics/SVG/1.1/DTD/svg11.dtd"><svg t="1591778510502" class="icon" viewBox="0 0 1024 1024" version="1.1" xmlns="http://www.w3.org/2000/svg" p-id="801" xmlns:xlink="http://www.w3.org/1999/xlink" width="200" height="200"><defs><style type="text/css"></style></defs><path d="M667.491054 499.803849a274.161167 274.161167 0 1 0-311.447085 0A511.767511 511.767511 0 0 0 0 987.445178a36.554822 36.554822 0 0 0 36.554822 36.554822 36.554822 36.554822 0 0 0 36.554822-36.554822 438.657867 438.657867 0 0 1 877.315734 0 36.554822 36.554822 0 0 0 73.109645 0 511.767511 511.767511 0 0 0-356.043969-487.641329zM310.715989 274.626144A201.051522 201.051522 0 1 1 511.767511 475.677666a201.051522 201.051522 0 0 1-201.051522-201.051522z" p-id="802" fill="currentColor"></path></svg>
