<?xml version="1.0" standalone="no"?><!DOCTYPE svg PUBLIC "-//W3C//DTD SVG 1.1//EN" "http://www.w3.org/Graphics/SVG/1.1/DTD/svg11.dtd"><svg t="1598436718739" class="icon" viewBox="0 0 1024 1024" version="1.1" xmlns="http://www.w3.org/2000/svg" p-id="1272" xmlns:xlink="http://www.w3.org/1999/xlink" width="48" height="48"><defs><style type="text/css"></style></defs><path d="M643.742668 256.042902H380.171785a12.917625 12.917625 0 0 1-12.832078-12.832078l-94.101906-204.030041a12.575436 12.575436 0 0 1 6.159397-17.109438A12.832078 12.832078 0 0 1 283.589011 21.386968h456.650884a12.832078 12.832078 0 0 1 4.448454 0.769925 12.575436 12.575436 0 0 1 6.159397 17.109437l-94.101906 204.030041a12.917625 12.917625 0 0 1-13.003172 12.746531z" fill="#EBE5DF" p-id="1273"></path><path d="M643.742668 277.429699H380.171785a34.218875 34.218875 0 0 1-33.705592-28.487214L253.733042 48.07769a34.732158 34.732158 0 0 1-0.59883-27.717288A32.593478 32.593478 0 0 1 271.783499 2.138851 34.218875 34.218875 0 0 1 283.589011 0.000171h456.650884a33.534497 33.534497 0 0 1 11.891059 2.13868A32.507931 32.507931 0 0 1 771.207977 20.360402a35.074347 35.074347 0 0 1-0.598831 27.717288L677.533807 248.942485a34.218875 34.218875 0 0 1-33.791139 28.487214z m-256.641561-42.773594h249.96888v-0.427736L725.611326 42.773765H298.388674l88.370244 191.454604s0.171094 0.256642 0.171095 0.427736z" fill="#666666" p-id="1274"></path><path d="M662.22086 309.338799H361.77914c-6.416039 0-65.871334-95.042925-65.871334-95.042924a11.634417 11.634417 0 0 1 11.54887-11.548871h409.086648A11.54887 11.54887 0 0 1 728.434383 214.295875s-59.883031 95.042925-66.213523 95.042924z" fill="#8C7051" p-id="1275"></path><path d="M662.22086 330.725596H361.77914c-12.917625 0-18.221551 0-84.007338-105.137493a21.728986 21.728986 0 0 1-3.250793-11.292228 33.021214 33.021214 0 0 1 32.935667-32.935667h409.086648a33.021214 33.021214 0 0 1 32.935667 32.935667 21.044608 21.044608 0 0 1-3.33634 11.292228c-65.70024 105.137493-71.004165 105.137493-83.921791 105.137493z m-291.715907-42.773593h282.904547c8.554719-10.95004 25.664156-37.041932 42.773594-63.818202h-368.708376c17.109437 26.77627 34.646611 52.868162 43.030235 63.818202z" fill="#666666" p-id="1276"></path><path d="M719.195287 970.447461H304.804713a121.134817 121.134817 0 0 1-117.199646-91.877679 76.992468 76.992468 0 0 1 2.994151-45.853292l186.407321-487.618966h269.986922l186.407321 487.618966a76.992468 76.992468 0 0 1 2.994151 45.853292 121.134817 121.134817 0 0 1-117.199646 91.877679z" fill="#EBE5DF" p-id="1277"></path><path d="M719.195287 991.834258H304.804713A141.922783 141.922783 0 0 1 166.8171 883.702613a97.60934 97.60934 0 0 1 3.849624-58.599823l186.321773-487.618966a21.386797 21.386797 0 0 1 20.018042-13.773097h269.986922a21.386797 21.386797 0 0 1 20.018042 13.773097l186.321773 487.618966a97.60934 97.60934 0 0 1 3.849624 58.599823 142.00833 142.00833 0 0 1-137.987613 108.131645zM391.720655 366.056584L210.61726 840.330189a54.408011 54.408011 0 0 0-2.224227 33.106762 99.063643 99.063643 0 0 0 96.41168 75.623713h414.390574a99.14919 99.14919 0 0 0 96.41168-75.623713 54.408011 54.408011 0 0 0-2.224227-33.106762L632.279345 366.056584z" fill="#666666" p-id="1278"></path><path d="M662.22086 309.338799H361.77914c-6.416039 0-65.871334 95.042925-65.871334 95.042925a11.634417 11.634417 0 0 0 11.54887 11.54887h409.086648A11.54887 11.54887 0 0 0 728.434383 404.381724s-59.883031-95.042925-66.213523-95.042925z" fill="#8C7051" p-id="1279"></path><path d="M716.543324 437.317391H307.456676a33.021214 33.021214 0 0 1-32.935667-32.935667 22.242269 22.242269 0 0 1 3.250793-11.377776c65.70024-105.051946 71.089712-105.051946 84.007338-105.051945h300.44172c12.917625 0 18.221551 0 83.921791 105.051945a21.557891 21.557891 0 0 1 3.33634 11.377776 33.021214 33.021214 0 0 1-32.935667 32.935667z m-389.068606-42.773593h369.050564c-17.109437-26.77627-34.646611-52.953709-42.773593-63.818202H370.504953c-8.383624 10.864493-25.920798 37.127479-43.030235 63.818202z m334.746142-63.818202z" fill="#666666" p-id="1280"></path><path d="M190.513671 832.973131a73.741675 73.741675 0 0 0-4.020718 40.720461 121.134817 121.134817 0 0 0 118.31176 96.753869h414.390574a121.134817 121.134817 0 0 0 118.31176-96.753869 73.741675 73.741675 0 0 0-4.020718-40.720461L779.762695 692.419103H244.237305z" fill="#FAB952" p-id="1281"></path><path d="M719.195287 991.834258H304.804713A142.607161 142.607161 0 0 1 165.533892 877.970952a95.042925 95.042925 0 0 1 4.961737-52.61152L224.219263 684.377667a21.472344 21.472344 0 0 1 20.018042-13.687549H779.762695a21.472344 21.472344 0 0 1 20.018042 13.687549l53.638086 140.639576a94.101906 94.101906 0 0 1 5.047285 52.61152 142.607161 142.607161 0 0 1-139.270821 114.205495z m-460.243866-278.028358L210.531713 840.586831a51.841595 51.841595 0 0 0-3.079699 28.829402 99.74802 99.74802 0 0 0 97.352699 79.644431h414.390574a99.74802 99.74802 0 0 0 97.352699-79.644431 51.841595 51.841595 0 0 0-3.079699-28.829402l-48.419708-126.780931z m-68.43775 119.167231z" fill="#666666" p-id="1282"></path><path d="M710.555021 1024H309.253167a37.469668 37.469668 0 1 1 0-74.939336h401.301854a37.469668 37.469668 0 1 1 0 74.939336z m0-32.165742z" fill="#666666" p-id="1283"></path></svg>