<?xml version="1.0" standalone="no"?><!DOCTYPE svg PUBLIC "-//W3C//DTD SVG 1.1//EN" "http://www.w3.org/Graphics/SVG/1.1/DTD/svg11.dtd"><svg t="1598953964624" class="icon" viewBox="0 0 1024 1024" version="1.1" xmlns="http://www.w3.org/2000/svg" p-id="4730" xmlns:xlink="http://www.w3.org/1999/xlink" width="48" height="48"><defs><style type="text/css"></style></defs><path d="M873.437867 967.816533c-13.073067 0-39.2192 0-52.292267-13.073066L573.508267 680.96c-26.1632-26.146133-26.1632-65.365333 0-91.511467 26.129067-26.146133 65.348267-26.146133 91.477333 0L912.657067 863.232c26.146133 26.146133 26.146133 65.365333 0 91.511467 0 13.073067-13.073067 13.073067-39.202134 13.073066z" fill="#347FF7" p-id="4731"></path><path d="M557.5168 4.829867c26.146133 0 91.511467 13.073067 91.511467 78.421333 0 52.292267-78.4384 39.2192-104.584534 39.2192-117.6576 0-156.8768 65.365333-169.949866 117.6576l-26.129067 156.859733h130.730667c26.129067 0 52.2752 26.146133 52.2752 52.292267s-26.146133 52.292267-52.292267 52.292267h-143.069867l-91.511466 404.514133s-13.056 117.6576-91.4944 117.6576-39.2192-117.6576-39.2192-117.6576l91.511466-391.441067H87.637333c-26.146133 0-52.292267-26.146133-52.292266-52.292266 0-52.292267 26.146133-65.365333 52.292266-65.365334h143.803734l39.202133-170.666666C296.789333 4.829867 492.885333-8.2432 557.5168 4.829867z" fill="#3F4D75" p-id="4732"></path><path d="M586.564267 993.962667c-13.073067 0-26.146133 0-39.2192-13.073067-26.146133-26.146133-26.146133-52.292267 0-78.4384L886.493867 550.229333c26.146133-26.146133 52.292267-26.146133 78.4384 0s26.146133 52.292267 0 78.4384L625.783467 980.8896c-13.073067 13.073067-26.146133 13.073067-39.2192 13.073067z" fill="#347FF7" p-id="4733"></path></svg>