<?xml version="1.0" standalone="no"?><!DOCTYPE svg PUBLIC "-//W3C//DTD SVG 1.1//EN" "http://www.w3.org/Graphics/SVG/1.1/DTD/svg11.dtd"><svg t="1598238562719" class="icon" viewBox="0 0 1024 1024" version="1.1" xmlns="http://www.w3.org/2000/svg" p-id="4485" xmlns:xlink="http://www.w3.org/1999/xlink" width="200" height="200"><defs><style type="text/css"></style></defs><path d="M868.848485 1024H155.151515A116.363636 116.363636 0 0 1 38.787879 907.636364V116.363636A116.363636 116.363636 0 0 1 155.151515 0h713.69697a116.363636 116.363636 0 0 1 116.363636 116.363636v791.272728a116.363636 116.363636 0 0 1-116.363636 116.363636zM155.151515 77.575758a38.787879 38.787879 0 0 0-38.787879 38.787878v791.272728a38.787879 38.787879 0 0 0 38.787879 38.787878h713.69697a38.787879 38.787879 0 0 0 38.787879-38.787878V116.363636a38.787879 38.787879 0 0 0-38.787879-38.787878z" p-id="4486" fill="#1296db"></path><path d="M659.393939 752.484848H349.090909a38.787879 38.787879 0 0 1 0-77.575757h310.30303a38.787879 38.787879 0 0 1 0 77.575757zM659.393939 868.848485H349.090909a38.787879 38.787879 0 0 1 0-77.575758h310.30303a38.787879 38.787879 0 0 1 0 77.575758zM512 449.939394A147.393939 147.393939 0 0 1 364.606061 310.30303a147.393939 147.393939 0 0 1 147.393939-139.636363 139.636364 139.636364 0 1 1 0 279.272727z m0-201.69697a69.818182 69.818182 0 0 0-69.818182 62.060606 62.060606 62.060606 0 0 0 69.818182 62.060606 62.060606 62.060606 0 0 0 62.060606-62.060606 69.818182 69.818182 0 0 0-62.060606-62.060606z" p-id="4487" fill="#1296db"></path><path d="M659.393939 605.090909a46.545455 46.545455 0 0 1-38.787878-38.787879 116.363636 116.363636 0 0 0-108.606061-116.363636 116.363636 116.363636 0 0 0-108.606061 116.363636 38.787879 38.787879 0 0 1-38.787878 38.787879 38.787879 38.787879 0 0 1-38.787879-38.787879 193.939394 193.939394 0 0 1 186.181818-193.939394 186.181818 186.181818 0 0 1 186.181818 193.939394 38.787879 38.787879 0 0 1-38.787879 38.787879z" p-id="4488" fill="#1296db"></path></svg>