<?xml version="1.0" standalone="no"?><!DOCTYPE svg PUBLIC "-//W3C//DTD SVG 1.1//EN" "http://www.w3.org/Graphics/SVG/1.1/DTD/svg11.dtd"><svg t="1600222983757" class="icon" viewBox="0 0 1024 1024" version="1.1" xmlns="http://www.w3.org/2000/svg" p-id="3587" xmlns:xlink="http://www.w3.org/1999/xlink" width="128" height="128"><defs><style type="text/css"></style></defs><path d="M985.6 1024H38.4A38.4 38.4 0 0 1 0 985.66V38.4A38.4 38.4 0 0 1 38.4 0a38.4 38.4 0 0 1 38.4 38.4v908.785h908.8a38.4 38.4 0 1 1 0 76.8z m-64.005-128.01h-76.8a51.195 51.195 0 0 1-51.194-51.194V281.594a51.195 51.195 0 0 1 51.195-51.195h76.8a51.21 51.21 0 0 1 51.21 51.195v563.202a51.21 51.21 0 0 1-51.21 51.195z m-307.198 0h-76.8a51.195 51.195 0 0 1-51.194-51.194V383.998a51.195 51.195 0 0 1 51.194-51.195h76.8a51.195 51.195 0 0 1 51.195 51.195v460.798a51.195 51.195 0 0 1-51.195 51.195z m-307.199 0h-76.8a51.21 51.21 0 0 1-51.209-51.194V179.189a51.21 51.21 0 0 1 51.21-51.195h76.8a51.21 51.21 0 0 1 51.194 51.195v665.607a51.195 51.195 0 0 1-51.195 51.195z m0 0" p-id="3588" fill="#1296db"></path></svg>