<?xml version="1.0" standalone="no"?><!DOCTYPE svg PUBLIC "-//W3C//DTD SVG 1.1//EN" "http://www.w3.org/Graphics/SVG/1.1/DTD/svg11.dtd"><svg t="1598238501845" class="icon" viewBox="0 0 1026 1024" version="1.1" xmlns="http://www.w3.org/2000/svg" p-id="3721" xmlns:xlink="http://www.w3.org/1999/xlink" width="200.390625" height="200"><defs><style type="text/css"></style></defs><path d="M514.844444 0C233.244444 0 2.844444 230.4 2.844444 512s230.4 512 512 512 512-230.4 512-512S796.444444 0 514.844444 0z m28.444445 750.933333h56.888889l-85.333334-147.911111-85.333333 147.911111h56.888889v147.911111L133.688889 548.977778h147.911111v56.888889l147.911111-85.333334-147.911111-85.333333v56.888889H122.311111L486.4 128v159.288889h-56.888889l85.333333 147.911111 85.333334-147.911111h-56.888889V128l364.088889 364.088889h-159.288889v-56.888889l-147.911111 85.333333 147.911111 85.333334v-56.888889h147.911111L543.288889 898.844444v-147.911111zM967.111111 472.177778L557.511111 59.733333c216.177778 19.911111 389.688889 193.422222 409.6 412.444445zM472.177778 59.733333L59.733333 472.177778C79.644444 253.155556 253.155556 79.644444 472.177778 59.733333zM59.733333 554.666667L472.177778 967.111111c-219.022222-19.911111-392.533333-193.422222-412.444445-412.444444zM557.511111 967.111111L967.111111 554.666667c-19.911111 219.022222-193.422222 392.533333-409.6 412.444444z" p-id="3722" fill="#1296db"></path></svg>