<?xml version="1.0" standalone="no"?><!DOCTYPE svg PUBLIC "-//W3C//DTD SVG 1.1//EN" "http://www.w3.org/Graphics/SVG/1.1/DTD/svg11.dtd"><svg t="1598238443327" class="icon" viewBox="0 0 1024 1024" version="1.1" xmlns="http://www.w3.org/2000/svg" p-id="2580" xmlns:xlink="http://www.w3.org/1999/xlink" width="200" height="200"><defs><style type="text/css"></style></defs><path d="M958.976 174.08h-163.84v-90.624c0-36.352-29.696-65.536-65.536-65.536h-434.688c-36.352 0-65.536 29.696-65.536 65.536V174.08h-163.84c-36.352 0-65.536 29.696-65.536 65.536v700.928c0 36.352 29.696 65.536 65.536 65.536h893.44c36.352 0 65.536-29.696 65.536-65.536V239.616c0-36.352-29.696-65.536-65.536-65.536z m-662.528-67.072c0-12.288 10.24-22.528 22.528-22.528h387.584c12.288 0 22.528 10.24 22.528 22.528V174.08h-432.64v-67.072zM957.952 916.992c0 12.288-10.24 22.528-22.528 22.528h-845.824c-12.288 0-22.528-10.24-22.528-23.04V263.168c0-12.288 10.24-22.528 22.528-22.528H935.936c12.288 0 22.528 10.24 22.528 22.528l-0.512 653.824z" p-id="2581" fill="#1296db"></path><path d="M870.912 546.304h-58.88v-70.656c0-36.352-29.696-65.536-65.536-65.536h-93.184c-36.352 0-65.536 29.696-65.536 65.536v70.656h-150.016v-70.656c0-36.352-29.696-65.536-65.536-65.536h-93.184c-36.352 0-65.536 29.696-65.536 65.536v70.656H154.112c-9.216 0-17.408 3.584-23.552 9.728a32.8704 32.8704 0 0 0-9.728 23.552c0 18.432 14.848 33.28 33.28 33.28h58.88v91.648c0 36.352 29.696 65.536 65.536 65.536h93.184c36.352 0 65.536-29.696 65.536-65.536v-91.648h150.016v91.648c0 36.352 29.696 65.536 65.536 65.536h93.184c36.352 0 65.536-29.696 65.536-65.536v-91.648h58.88c9.216 0 17.408-3.584 23.552-9.728 6.144-6.144 9.728-14.336 9.728-23.552 0.512-18.432-14.336-33.28-32.768-33.28z m-500.224 134.656c0 12.288-10.24 22.528-22.528 22.528h-45.568c-12.288 0-22.528-10.24-22.528-23.04v-181.248c0-12.288 10.24-22.528 22.528-22.528h45.568c12.288 0 22.528 10.24 22.528 22.528V680.96z m374.784 0c0 12.288-10.24 22.528-22.528 22.528h-45.568c-12.288 0-22.528-10.24-22.528-23.04v-181.248c0-12.288 10.24-22.528 22.528-22.528h45.568c12.288 0 22.528 10.24 22.528 22.528V680.96z" p-id="2582" fill="#1296db"></path></svg>