<?xml version="1.0" standalone="no"?><!DOCTYPE svg PUBLIC "-//W3C//DTD SVG 1.1//EN" "http://www.w3.org/Graphics/SVG/1.1/DTD/svg11.dtd"><svg t="1598238534427" class="icon" viewBox="0 0 1024 1024" version="1.1" xmlns="http://www.w3.org/2000/svg" p-id="3908" xmlns:xlink="http://www.w3.org/1999/xlink" width="200" height="200"><defs><style type="text/css"></style></defs><path d="M880 144H144c-17.7 0-32 14.3-32 32v672c0 17.7 14.3 32 32 32h736c17.7 0 32-14.3 32-32V176c0-17.7-14.3-32-32-32z m-40 664H184V216h656v592z" p-id="3909" fill="#1296db"></path><path d="M281 744h462c17.7 0 32-14.2 32-31.8V463.8c0-17.6-14.3-31.8-32-31.8h-73V329.8c0-17.6-14.3-31.8-32-31.8H386c-17.7 0-32 14.2-32 31.8V432h-73c-17.7 0-32 14.2-32 31.8v248.4c0 17.6 14.3 31.8 32 31.8z m40-240.4h105V369.5h172v134h105v168.9H321V503.6z" p-id="3910" fill="#1296db"></path><path d="M407.5 533.5h-24c-4.4 0-8 3.6-8 8v93c0 4.4 3.6 8 8 8h24c4.4 0 8-3.6 8-8v-93c0-4.4-3.6-8-8-8zM483.2 533.5h-24c-4.4 0-8 3.6-8 8v93c0 4.4 3.6 8 8 8h24c4.4 0 8-3.6 8-8v-93c0-4.4-3.6-8-8-8zM558.9 533.5h-24c-4.4 0-8 3.6-8 8v93c0 4.4 3.6 8 8 8h24c4.4 0 8-3.6 8-8v-93c0-4.4-3.6-8-8-8zM634.6 533.5h-24c-4.4 0-8 3.6-8 8v93c0 4.4 3.6 8 8 8h24c4.4 0 8-3.6 8-8v-93c0-4.4-3.5-8-8-8z" p-id="3911" fill="#1296db"></path></svg>