<?xml version="1.0" standalone="no"?><!DOCTYPE svg PUBLIC "-//W3C//DTD SVG 1.1//EN" "http://www.w3.org/Graphics/SVG/1.1/DTD/svg11.dtd"><svg t="1600222748257" class="icon" viewBox="0 0 1024 1024" version="1.1" xmlns="http://www.w3.org/2000/svg" p-id="2733" width="128" height="128" xmlns:xlink="http://www.w3.org/1999/xlink"><defs><style type="text/css"></style></defs><path d="M102.4 89.6a12.8 12.8 0 0 0-12.8 12.8v819.2c0 7.0656 5.7344 12.8 12.8 12.8h819.2a12.8 12.8 0 0 0 12.8-12.8V102.4a12.8 12.8 0 0 0-12.8-12.8H102.4z m0-76.8h819.2c49.4592 0 89.6 40.1408 89.6 89.6v819.2A89.6 89.6 0 0 1 921.6 1011.2H102.4A89.6 89.6 0 0 1 12.8 921.6V102.4C12.8 52.9408 52.9408 12.8 102.4 12.8z m258.048 267.776A38.4 38.4 0 1 1 415.744 333.824L327.3216 425.8816a38.4 38.4 0 0 1-53.504 1.792l-43.6224-39.6288a38.4 38.4 0 0 1 51.6096-56.832l16.0256 14.4896L360.448 280.576zM486.4 391.68a38.4 38.4 0 0 1 0-76.8h256a38.4 38.4 0 1 1 0 76.8h-256z m0 307.2a38.4 38.4 0 0 1 0-76.8h256a38.4 38.4 0 1 1 0 76.8h-256zM307.2 755.2a89.6 89.6 0 1 1 0-179.2 89.6 89.6 0 0 1 0 179.2z m0-76.8a12.8 12.8 0 1 0 0-25.6 12.8 12.8 0 0 0 0 25.6z" p-id="2734" fill="#1296db"></path></svg>