<?xml version="1.0" encoding="utf-8"?>
<!-- Generator: Adobe Illustrator 15.0.0, SVG Export Plug-In . SVG Version: 6.00 Build 0)  -->
<!DOCTYPE svg PUBLIC "-//W3C//DTD SVG 1.1//EN" "http://www.w3.org/Graphics/SVG/1.1/DTD/svg11.dtd">
<svg version="1.1" id="图层_1" xmlns="http://www.w3.org/2000/svg" xmlns:xlink="http://www.w3.org/1999/xlink" x="0px" y="0px"
	 width="1000px" height="350px" viewBox="0 0 1000 350" enable-background="new 0 0 1000 350" xml:space="preserve">
<g>
	<linearGradient id="SVGID_1_" gradientUnits="userSpaceOnUse" x1="171.6255" y1="56.9883" x2="172.3304" y2="299.4662">
		<stop  offset="0" style="stop-color:#2A9BC9"/>
		<stop  offset="1" style="stop-color:#1D5E9E"/>
	</linearGradient>
	<path fill="url(#SVGID_1_)" d="M66.289,55.758l74.717-31.955c0,0,4.463-2.35,9.633,1.175l121.943,52.396
		c0,0,4.229,2.35,4.465,10.104v77.066l-35.009-15.978l-26.081-23.731l-31.485,22.556l-21.381-35.713L66.289,55.758z"/>
	<linearGradient id="SVGID_2_" gradientUnits="userSpaceOnUse" x1="79.2915" y1="57.2563" x2="79.9964" y2="299.7334">
		<stop  offset="0" style="stop-color:#2A9BC9"/>
		<stop  offset="1" style="stop-color:#1D5E9E"/>
	</linearGradient>
	<path fill="url(#SVGID_2_)" d="M30.34,35.787L147.35,171.358L20.471,242.316c0,0-6.108-3.76-8.458-31.015V87.478
		c0,0-0.001-7.753,5.873-9.633l26.08-11.982L30.34,35.787z"/>
	<linearGradient id="SVGID_3_" gradientUnits="userSpaceOnUse" x1="220.4619" y1="56.8462" x2="221.1668" y2="299.3248">
		<stop  offset="0" style="stop-color:#2A9BC9"/>
		<stop  offset="1" style="stop-color:#1D5E9E"/>
	</linearGradient>
	<path fill="url(#SVGID_3_)" d="M115.63,222.579h29.135v110.667c0,0,31.484-12.454,36.183-16.918c0,0,41.352-19.972,64.849-43.937
		c0,0,26.315-23.027,31.25-51.692c0,0,0.469-35.713,0-39.707l49.106,5.639l-99.388-28.195l-20.206,37.828L115.63,222.579z"/>
</g>
<g>
	<linearGradient id="SVGID_4_" gradientUnits="userSpaceOnUse" x1="417.6333" y1="113.9878" x2="417.6333" y2="226.4358">
		<stop  offset="0" style="stop-color:#2A9BC9"/>
		<stop  offset="1" style="stop-color:#1D5E9E"/>
	</linearGradient>
	<path fill="url(#SVGID_4_)" d="M344,186.048h67.358v-38.763h-56.873v-11.597h56.873v-22.241h-41.304v-11.121
		c-7.521,4.766-15.676,9.532-24.465,14.298c-2.224-4.024-4.873-7.995-7.943-11.915c35.268-16.521,60.208-35.479,74.824-56.873
		h17.316l-3.653,4.448c16.839,21.5,40.669,38.233,71.487,50.201c-2.858,4.024-5.667,8.261-8.419,12.709
		c-8.261-3.495-16.258-7.678-23.989-12.551v10.803h-41.145v22.241h56.555v11.597h-56.555v38.763h67.676v11.756H344V186.048z
		 M361.793,156.976l9.373-7.466c7.731,7.837,15.303,15.993,22.718,24.465l-10.803,8.578
		C376.726,174.186,369.629,165.661,361.793,156.976z M417.872,61.34c-10.91,13.769-26.637,27.272-47.183,40.51h93.252
		C447.419,91.366,432.063,77.862,417.872,61.34z M440.43,175.245c8.58-8.896,15.834-17.581,21.765-26.053l11.12,7.148
		c-7.415,9.214-15.198,18.059-23.353,26.531L440.43,175.245z"/>
	<linearGradient id="SVGID_5_" gradientUnits="userSpaceOnUse" x1="575.3838" y1="113.9873" x2="575.3838" y2="226.4349">
		<stop  offset="0" style="stop-color:#2A9BC9"/>
		<stop  offset="1" style="stop-color:#1D5E9E"/>
	</linearGradient>
	<path fill="url(#SVGID_5_)" d="M502.068,156.182h117.399v11.121H502.068V156.182z M632.019,64.359
		c-0.53,10.167-1.219,19.54-2.065,28.118c-0.953,8.791-3.23,14.669-6.83,17.634c-3.603,3.071-10.063,4.607-19.383,4.607
		c-3.813,0-10.325-0.159-19.539-0.477c-0.848-4.659-2.014-9.055-3.495-13.186c8.789,0.953,16.256,1.483,22.398,1.589
		c8.791,0.53,13.61-3.177,14.457-11.121c0.636-5.719,1.06-11.067,1.271-16.044h-79.432v50.201h109.298
		c-0.636,19.699-1.378,35.002-2.225,45.911c-1.06,11.331-3.866,19.063-8.42,23.194c-4.448,4.13-12.339,6.195-23.67,6.195
		c-7.837,0-17.423-0.212-28.754-0.635c-0.742-4.66-1.854-9.532-3.337-14.615c11.649,1.271,22.135,1.906,31.455,1.906
		c6.99,0,11.809-1.166,14.457-3.495c2.753-2.224,4.5-6.673,5.242-13.345c0.847-9.214,1.429-20.545,1.748-33.997H526.375V64.359
		h34.394c2.594-6.248,4.687-12.233,6.275-17.952l13.344,3.336c-1.747,4.184-3.945,9.055-6.592,14.615H632.019z"/>
	<linearGradient id="SVGID_6_" gradientUnits="userSpaceOnUse" x1="740.998" y1="113.9878" x2="740.998" y2="226.4359">
		<stop  offset="0" style="stop-color:#2A9BC9"/>
		<stop  offset="1" style="stop-color:#1D5E9E"/>
	</linearGradient>
	<path fill="url(#SVGID_6_)" d="M704.46,156.34l10.326,8.103c-13.557,12.181-27.802,23.935-42.734,35.268
		c-2.541-3.071-5.454-6.303-8.737-9.69C677.082,180.594,690.797,169.367,704.46,156.34z M775.947,112.653
		c13.557,10.909,27.431,22.876,41.623,35.903c-3.496,3.389-6.726,6.62-9.691,9.69c-4.396-4.341-8.844-8.631-13.344-12.868
		c-14.14,0.583-28.596,1.271-43.37,2.065v35.745c0,12.073-6.354,18.11-19.063,18.11c-5.189,0-12.021-0.107-20.493-0.318
		c-0.529-3.919-1.219-8.26-2.064-13.026c8.896,0.953,15.727,1.429,20.492,1.429c5.825,0,8.738-2.859,8.738-8.578v-32.726
		c-12.868,0.689-25.948,1.43-39.239,2.224c-6.037,0.318-12.021,1.007-17.951,2.066l-5.243-13.663
		c6.99-1.271,13.609-3.336,19.858-6.196c16.203-7.943,31.242-15.938,45.117-23.988c-18.428,1.429-33.892,2.7-46.388,3.813
		c-5.509,0.53-9.691,1.112-12.551,1.747l-5.084-13.344c5.084-1.271,9.85-3.124,14.298-5.56
		c13.291-7.414,26.609-16.177,39.954-26.292c-18.164,1.112-36.566,2.093-55.205,2.939c-0.742-3.706-1.695-7.413-2.859-11.121
		c50.519-1.906,95.37-4.818,134.558-8.737l2.382,11.279c-22.983,1.906-46.308,3.628-69.979,5.163l6.435,4.528
		c-16.629,11.121-31.984,20.493-46.07,28.118c23.723-1.323,43.369-2.594,58.938-3.813c10.59-6.778,20.386-13.609,29.39-20.493
		l10.325,8.419c-26.583,18.958-57.456,36.698-92.616,53.22c21.075-0.742,46.626-1.854,76.651-3.337
		c-5.297-4.871-10.618-9.637-15.966-14.297L775.947,112.653z M766.575,164.76l8.102-8.579c13.344,8.896,28.012,19.539,44.005,31.931
		l-9.372,10.327C794.481,186.153,780.237,174.928,766.575,164.76z"/>
	<linearGradient id="SVGID_7_" gradientUnits="userSpaceOnUse" x1="905.6602" y1="113.9873" x2="905.6602" y2="226.4347">
		<stop  offset="0" style="stop-color:#2A9BC9"/>
		<stop  offset="1" style="stop-color:#1D5E9E"/>
	</linearGradient>
	<path fill="url(#SVGID_7_)" d="M826.467,176.834c17.58-3.389,35.743-7.202,54.489-11.438c-0.425,5.508-0.636,9.321-0.636,11.438
		c-19.17,4.236-35.902,8.261-50.2,12.073L826.467,176.834z M847.118,143.473c8.473-1.165,19.328-2.753,32.567-4.766
		c-0.636,4.237-1.165,8.155-1.589,11.756c-13.239,1.801-28.385,4.078-45.435,6.831l-2.542-11.438
		c6.618-6.777,14.482-17.818,23.591-33.123c-11.015,0.742-18.932,1.298-23.75,1.668l-3.019-10.803
		c9.32-12.284,19.382-31.03,30.185-56.237l12.073,4.766c-10.274,20.124-19.646,36.963-28.118,50.519
		c6.937-0.105,13.186-0.264,18.745-0.476c3.177-5.666,6.514-11.809,10.009-18.428l11.915,5.242
		C869.678,110.059,858.132,128.222,847.118,143.473z M954.033,89.936c8.896,11.968,18.003,25.471,27.324,40.51
		c-3.707,2.118-7.626,4.501-11.756,7.148c-2.649-4.5-5.19-8.816-7.626-12.947c-4.925,0.318-10.009,0.609-15.251,0.874v53.854
		c0,6.461,2.384,9.691,7.148,9.691h7.785c5.189,0,8.154-2.648,8.896-7.943c0.846-6.355,1.377-13.238,1.588-20.653
		c3.495,1.483,7.731,3.019,12.71,4.608c-0.848,9.214-1.748,16.362-2.7,21.445c-1.484,9.215-7.044,13.822-16.682,13.822h-13.662
		c-11.545,0-17.315-6.621-17.315-19.858v-54.251c-5.932,0.318-12.073,0.689-18.428,1.112c-0.849,23.035-3.813,39.107-8.896,48.215
		c-6.038,11.649-17.316,21.288-33.839,28.913c-2.33-3.284-5.03-6.831-8.101-10.644c15.355-6.249,25.628-14.457,30.818-24.624
		c4.767-8.103,7.333-21.791,7.705-41.066c-2.172,0.159-4.369,0.292-6.593,0.397c-4.556,0.424-8.791,1.111-12.709,2.065
		l-5.401-12.392c4.554-1.906,8.207-4.448,10.962-7.625c7.942-9.478,15.409-19.804,22.399-30.978h-34.633V68.33h50.677
		c-3.971-6.089-7.731-11.49-11.278-16.204l10.484-6.513c4.024,4.978,8.525,10.909,13.503,17.792l-7.545,4.924h48.373v11.28h-64.498
		l8.738,3.813c-8.791,11.862-17.424,22.771-25.896,32.726c19.964-0.688,38.312-1.403,55.046-2.145
		c-4.025-6.46-7.864-12.364-11.518-17.713L954.033,89.936z"/>
</g>
<g>
	<path fill="#1B5C9D" d="M367.913,275.472c0,11.688-5.308,19.989-16.763,19.989c-9.499,0-13.131-6.607-13.131-11.35
		c0-2.965,1.397-7.284,6.892-7.284c4.935,0,5.959,3.133,5.959,5.081c0,1.44-0.559,2.627-1.396,4.066h0.092
		c-0.744,1.439-1.583,2.965-1.583,4.658c0,2.711,2.421,3.049,3.632,3.049c4.004,0,5.681-2.794,5.681-10.333v-47.855h-6.612
		c-0.28,0-0.373-0.169-0.373-0.424v-1.016c0-0.254,0.093-0.424,0.373-0.424h23.84c0.279,0,0.465,0.17,0.465,0.424v1.016
		c0,0.255-0.187,0.424-0.465,0.424h-6.612V275.472z"/>
	<path fill="#1B5C9D" d="M388.025,235.493h-6.612c-0.28,0-0.465-0.169-0.465-0.424v-1.016c0-0.254,0.186-0.424,0.465-0.424h23.747
		c0.28,0,0.465,0.17,0.465,0.424v1.016c0,0.255-0.186,0.424-0.465,0.424h-6.612v56.579h6.612c0.28,0,0.465,0.17,0.465,0.424v1.017
		c0,0.254-0.186,0.424-0.465,0.424h-23.747c-0.28,0-0.465-0.17-0.465-0.424v-1.017c0-0.254,0.186-0.424,0.465-0.424h6.612V235.493z"
		/>
	<path fill="#1B5C9D" d="M419.314,235.493h-6.612c-0.28,0-0.466-0.169-0.466-0.424v-1.016c0-0.254,0.187-0.424,0.466-0.424h14.993
		c0.092,0,0.279,0.085,0.372,0.17l26.541,39.808v-38.114h-6.426c-0.279,0-0.465-0.169-0.465-0.424v-1.016
		c0-0.254,0.187-0.424,0.465-0.424h14.9c0.28,0,0.465,0.17,0.465,0.424v1.016c0,0.255-0.186,0.424-0.465,0.424h-6.519v58.697
		c0,0.423-0.559,0.592-0.838,0.254l-34.549-51.921v49.549h6.426c0.279,0,0.465,0.17,0.465,0.424v1.017
		c0,0.254-0.187,0.424-0.465,0.424h-14.9c-0.28,0-0.466-0.17-0.466-0.424v-1.017c0-0.254,0.187-0.424,0.466-0.424h6.612V235.493z"/>
	<path fill="#1B5C9D" d="M466.248,235.493c-0.28,0-0.465-0.169-0.465-0.424v-1.016c0-0.254,0.186-0.424,0.465-0.424h24.492
		c0.278,0,0.465,0.17,0.465,0.424v1.016c0,0.255-0.187,0.424-0.465,0.424h-8.009l16.297,44.298l12.665-32.863l-4.284-11.435h-5.122
		c-0.279,0-0.466-0.169-0.466-0.424v-1.016c0-0.254,0.187-0.424,0.466-0.424h24.398c0.28,0,0.467,0.17,0.467,0.424v1.016
		c0,0.255-0.187,0.424-0.467,0.424h-7.729l16.018,44.298c5.682-14.906,11.361-29.306,17.229-44.298h-6.24
		c-0.187,0-0.372-0.169-0.372-0.424v-1.016c0-0.254,0.186-0.424,0.372-0.424h13.503c0.28,0,0.467,0.17,0.467,0.424v1.016
		c0,0.255-0.187,0.424-0.467,0.424h-5.308l-23.282,60.476c-0.186,0.34-0.744,0.34-0.931,0l-17.135-46.415l-18.066,46.415
		c-0.187,0.34-0.745,0.34-0.931,0l-22.537-60.476H466.248z"/>
	<path fill="#1B5C9D" d="M579.579,273.1c0,5.506,0.186,9.995,1.396,13.213c1.677,4.32,5.309,7.2,11.269,7.2
		c9.22,0,15.459-5.929,15.459-16.517v-41.503h-6.52c-0.278,0-0.465-0.169-0.465-0.424v-1.016c0-0.254,0.187-0.424,0.465-0.424
		h15.087c0.28,0,0.466,0.17,0.466,0.424v1.016c0,0.255-0.186,0.424-0.466,0.424h-6.612v41.503c0,12.112-7.077,18.465-17.693,18.465
		c-15.458,0-23.002-6.014-23.002-22.53v-37.438h-6.519c-0.279,0-0.466-0.169-0.466-0.424v-1.016c0-0.254,0.187-0.424,0.466-0.424
		h23.747c0.279,0,0.466,0.17,0.466,0.424v1.016c0,0.255-0.187,0.424-0.466,0.424h-6.611V273.1z"/>
	<path fill="#1B5C9D" d="M665.25,273.015c0-0.253,0.187-0.423,0.465-0.423h0.932c0.187,0,0.466,0.17,0.466,0.339
		c1.583,12.112,9.127,20.751,17.135,20.751c6.146,0,12.2-3.557,12.2-10.926c0-6.521-4.098-8.894-14.808-14.398
		c-8.847-4.489-14.341-7.877-14.341-17.279c0-9.825,7.077-18.973,16.297-18.973c3.073,0,5.028,0.763,7.822,1.948
		c1.49,0.593,2.142,0.763,2.607,0.763c1.583,0,1.863-1.355,2.049-2.033c0-0.17,0.279-0.339,0.465-0.339h0.839
		c0.28,0,0.466,0.169,0.466,0.424v16.601c0,0.254-0.186,0.424-0.466,0.424h-0.839c-0.186,0-0.465-0.254-0.465-0.424
		c-0.652-6.691-4.563-15.584-12.758-15.584c-3.912,0-9.778,2.371-9.778,9.57c0,7.792,5.401,10.503,15.458,15.5
		c7.637,3.727,14.063,7.03,14.063,16.687c0,10.333-8.939,19.819-18.812,19.819c-1.956,0-4.656,0-8.567-1.524
		c-3.353-1.271-4.563-1.694-5.96-1.694c-1.862,0-2.514,1.016-2.607,1.948c0,0.254-0.187,0.423-0.466,0.423h-0.932
		c-0.278,0-0.465-0.169-0.465-0.423V273.015z"/>
	<path fill="#1B5C9D" d="M723.545,292.496c0-0.254,0.187-0.424,0.466-0.424h6.519v-22.614l-17.787-33.965h-5.588
		c-0.278,0-0.465-0.169-0.465-0.424v-1.016c0-0.254,0.187-0.424,0.465-0.424h25.237c0.28,0,0.466,0.17,0.466,0.424v1.016
		c0,0.255-0.186,0.424-0.466,0.424h-7.171l14.528,28.12c4.284-9.486,8.66-18.634,12.944-28.12h-5.773
		c-0.28,0-0.467-0.169-0.467-0.424v-1.016c0-0.254,0.187-0.424,0.467-0.424h13.596c0.279,0,0.466,0.17,0.466,0.424v1.016
		c0,0.255-0.187,0.424-0.466,0.424h-5.681l-13.689,29.984v26.595h6.611c0.28,0,0.466,0.17,0.466,0.424v1.017
		c0,0.254-0.186,0.424-0.466,0.424h-23.746c-0.279,0-0.466-0.17-0.466-0.424V292.496z"/>
	<path fill="#1B5C9D" d="M764.983,273.015c0-0.253,0.187-0.423,0.466-0.423h0.932c0.186,0,0.465,0.17,0.465,0.339
		c1.583,12.112,9.127,20.751,17.135,20.751c6.146,0,12.2-3.557,12.2-10.926c0-6.521-4.099-8.894-14.808-14.398
		c-8.847-4.489-14.341-7.877-14.341-17.279c0-9.825,7.078-18.973,16.297-18.973c3.073,0,5.029,0.763,7.822,1.948
		c1.49,0.593,2.142,0.763,2.608,0.763c1.582,0,1.862-1.355,2.048-2.033c0-0.17,0.28-0.339,0.466-0.339h0.838
		c0.28,0,0.466,0.169,0.466,0.424v16.601c0,0.254-0.186,0.424-0.466,0.424h-0.838c-0.186,0-0.466-0.254-0.466-0.424
		c-0.652-6.691-4.563-15.584-12.758-15.584c-3.911,0-9.778,2.371-9.778,9.57c0,7.792,5.401,10.503,15.459,15.5
		c7.636,3.727,14.063,7.03,14.063,16.687c0,10.333-8.94,19.819-18.813,19.819c-1.955,0-4.655,0-8.567-1.524
		c-3.353-1.271-4.563-1.694-5.96-1.694c-1.862,0-2.514,1.016-2.607,1.948c0,0.254-0.187,0.423-0.465,0.423h-0.932
		c-0.279,0-0.466-0.169-0.466-0.423V273.015z"/>
	<path fill="#1B5C9D" d="M828.68,235.493h-0.465c-10.431,0-16.577,8.64-17.974,18.719c-0.093,0.424-0.932,0.339-0.932,0v-20.158
		c0-0.254,0.187-0.424,0.466-0.424h48.332c0.279,0,0.466,0.17,0.466,0.424v20.158c0,0.339-0.839,0.424-0.932,0
		c-1.304-10.079-7.543-18.719-17.88-18.719h-0.466v56.579h6.519c0.28,0,0.466,0.17,0.466,0.424v1.017
		c0,0.254-0.186,0.424-0.466,0.424h-23.653c-0.279,0-0.465-0.17-0.465-0.424v-1.017c0-0.254,0.186-0.424,0.465-0.424h6.519V235.493z
		"/>
	<path fill="#1B5C9D" d="M910.535,293.513c0,0.254-0.186,0.424-0.465,0.424h-46.004c-0.186,0-0.372-0.17-0.372-0.424v-1.017
		c0-0.254,0.187-0.424,0.372-0.424h6.611v-56.579h-6.611c-0.186,0-0.372-0.169-0.372-0.424v-1.016c0-0.254,0.187-0.424,0.372-0.424
		h41.534c0.278,0,0.466,0.17,0.466,0.424v14.313c0,0.424-0.839,0.509-0.933,0.085c-1.396-6.521-6.146-12.959-16.296-12.959h-7.544
		v26.427c5.029,0,11.548-0.255,12.759-11.181c0-0.169,0.187-0.424,0.465-0.424h0.933c0.278,0,0.465,0.17,0.465,0.424v24.394
		c0,0.254-0.187,0.423-0.465,0.423h-0.933c-0.186,0-0.465-0.253-0.465-0.423c-1.211-11.18-8.01-11.435-12.759-11.435v28.374h11.083
		c7.822,0,14.62-3.727,17.321-15.33c0.092-0.424,0.837-0.339,0.837,0.085V293.513z"/>
	<path fill="#1B5C9D" d="M924.688,235.493h-6.704c-0.28,0-0.467-0.169-0.467-0.424v-1.016c0-0.254,0.187-0.424,0.467-0.424h17.693
		c0.187,0,0.465,0.17,0.465,0.339l11.455,41.587c4.749-13.891,9.686-27.696,14.435-41.587c0.093-0.169,0.279-0.339,0.466-0.339
		h17.508c0.278,0,0.465,0.17,0.465,0.424v1.016c0,0.255-0.187,0.424-0.465,0.424h-6.612v56.579h6.612
		c0.278,0,0.465,0.17,0.465,0.424v1.017c0,0.254-0.187,0.424-0.465,0.424h-23.841c-0.279,0-0.466-0.17-0.466-0.424v-1.017
		c0-0.254,0.187-0.424,0.466-0.424h6.52V237.78l-19.649,56.494c-0.187,0.424-0.839,0.424-0.933,0l-15.645-55.901v53.699h6.892
		c0.278,0,0.465,0.17,0.465,0.424v1.017c0,0.254-0.187,0.424-0.465,0.424h-15.365c-0.28,0-0.467-0.17-0.467-0.424v-1.017
		c0-0.254,0.187-0.424,0.467-0.424h6.704V235.493z"/>
</g>
</svg>
